<svg xmlns="http://www.w3.org/2000/svg" viewBox="0 0 256 262" role="img" aria-labelledby="title">
  <title>Google</title>
  <path fill="#4285F4" d="M255.68 133.5c0-11.34-.92-19.6-2.98-28.16H130.55v48.33h71.68c-1.44 12.01-9.21 30.09-26.48 42.24l-.24 1.62 38.53 29.85 2.67.27c24.54-22.66 38.97-56.03 38.97-94.15Z"/>
  <path fill="#34A853" d="M130.55 261.1c35.1 0 64.55-11.6 86.06-31.45l-41-31.74c-10.98 7.66-25.71 13-45.06 13-34.39 0-63.56-22.66-73.97-54.05l-1.53.13-40.07 31.01-.53 1.46c21.37 42.45 65.28 71.64 116.1 71.64Z"/>
  <path fill="#FBBC05" d="M56.58 156.86c-2.75-8.13-4.32-16.81-4.32-25.76 0-8.95 1.57-17.63 4.18-25.76l-.07-1.73L15.8 72.1l-1.33.63C5.66 90.35.63 110.43.63 131.1s5.03 40.75 13.84 58.37l42.11-32.61Z"/>
  <path fill="#EB4335" d="M130.55 51.3c24.69 0 41.38 10.67 50.88 19.6l37.1-36.2C195 12.77 165.65.9 130.55.9 79.73.9 35.82 30.09 14.45 72.54l41.97 32.62C66.99 73.96 96.16 51.3 130.55 51.3Z"/>
</svg>
